<svg xmlns="http://www.w3.org/2000/svg" width="146.24" height="152.6" viewBox="0 0 146.24 152.6">
  <g id="prize" transform="translate(-31.63 -33.1)">
    <path id="Path_1" data-name="Path 1"
      d="M126.3,175.1h-43v-6.8a6.807,6.807,0,0,1,6.8-6.8h29.4a6.807,6.807,0,0,1,6.8,6.8v6.8Z" fill="#fff" />
    <path id="Path_2" data-name="Path 2"
      d="M126.8,175.6h-44v-7.3a7.341,7.341,0,0,1,7.3-7.3h29.4a7.341,7.341,0,0,1,7.3,7.3v7.3Zm-43-1h42v-6.3a6.274,6.274,0,0,0-6.3-6.3H90.1a6.274,6.274,0,0,0-6.3,6.3v6.3Z" />
    <path id="Path_3" data-name="Path 3"
      d="M139.3,185.2H70.2v-3.3a6.807,6.807,0,0,1,6.8-6.8h55.5a6.807,6.807,0,0,1,6.8,6.8Z" fill="#fff" />
    <path id="Path_4" data-name="Path 4"
      d="M139.8,185.7H69.7v-3.8a7.341,7.341,0,0,1,7.3-7.3h55.5a7.341,7.341,0,0,1,7.3,7.3Zm-69.1-1h68.1v-2.8a6.274,6.274,0,0,0-6.3-6.3H77a6.274,6.274,0,0,0-6.3,6.3Z" />
    <path id="Path_5" data-name="Path 5"
      d="M112.4,161.9H97.2V128.2c-2-.8-12.1-5.3-21.6-20.3-18.3-5-31.1-13.8-38.1-26.2-9.7-17-4.5-34.3-4.3-35.1l.9-3H59c-.1-3.3-.2-6.6-.2-10v-.5h92v.5c0,3.3-.1,6.7-.2,10h24.8l.9,3c.2.7,5.4,18.1-4.3,35.1-6.9,12.1-19.3,20.8-37,25.9-9.7,16.1-20.5,20-22.7,20.7v33.6Zm-14.2-1h13.2V127.5l.4-.1c.1,0,12.1-3.1,22.5-20.5l.1-.2.2-.1c17.5-5,29.8-13.6,36.6-25.5,9.4-16.6,4.4-33.6,4.2-34.3l-.7-2.2H149.6v-.5c.1-3.3.2-6.7.2-9.9h-90c0,3.3.1,6.7.2,9.9v.5H34.9L34.2,47c-.2.7-5.2,17.6,4.2,34.3C45.3,93.4,58,102.1,76.1,107l.2.1.1.2c10.1,16.2,21.4,20.2,21.5,20.2l.3.1ZM71.9,99.1l-1.1-.4C58.1,94.1,49.1,87.2,44,78.2,38,67.8,38.8,57,39.7,51.5l.1-.4H60.4v.5C61.8,69.7,65.5,85.3,71.3,98Zm-31.3-47c-.9,5.5-1.4,15.7,4.2,25.6h0c4.9,8.5,13.3,15.1,25.1,19.6-5.6-12.5-9.1-27.7-10.5-45.2H40.6Zm97.9,46.7.5-1.1c5.4-12.5,8.8-28,10.1-46.1v-.5h20.6l.1.4a39.951,39.951,0,0,1-4.3,26.7l-.4-.2.4.2c-5,8.8-13.7,15.5-25.9,20.1Zm11.6-46.7c-1.3,17.5-4.6,32.6-9.7,44.9,11.4-4.5,19.6-11,24.3-19.3,5.7-9.9,5.1-20.1,4.2-25.6Z" />
    <g id="Group_1" data-name="Group 1">
      <path id="Union_1" data-name="Union 1" d="M-1083.27-186.1h-12v-30.2l-6.7,1.5-2.4-9.6,12.5-3.5h8.7v41.8Z"
        transform="translate(1194.87 284.1)" />
    </g>
  </g>
</svg>